<?xml version="1.0" encoding="UTF-8"?> <svg xmlns="http://www.w3.org/2000/svg" width="130" height="39" viewBox="0 0 130 39" fill="none"><path d="M23.1934 22.0584C23.1885 22.8542 22.4563 23.4934 21.5576 23.486C20.6614 23.4787 19.939 22.8273 19.9463 22.0315C19.9537 21.2356 20.6859 20.5965 21.5821 20.6039C22.4783 20.6112 23.2007 21.2626 23.1934 22.0584Z" fill="white"></path><path d="M13.6824 20.5598C13.7485 20.6284 13.8171 20.6969 13.8905 20.7606C13.3714 20.5843 12.911 20.288 12.5388 19.9035C11.9144 19.2669 11.5324 18.3878 11.5422 17.4205C11.5495 16.4533 11.9438 15.5791 12.5804 14.9497C12.96 14.5751 13.4277 14.2837 13.9493 14.1147C13.8758 14.1784 13.8048 14.2469 13.7338 14.3155H13.7314C12.9306 15.1089 12.4311 16.2108 12.4213 17.4279C12.409 18.6449 12.8914 19.7542 13.6799 20.5598H13.6824Z" fill="white"></path><path d="M27.6467 15.0453C27.0222 14.3964 26.1554 13.9923 25.1955 13.985L16.7792 13.914C15.8193 13.9066 14.9451 14.296 14.3133 14.9326H14.3108C13.6766 15.5693 13.2824 16.4533 13.2726 17.4328C13.2652 18.4123 13.6472 19.3012 14.2692 19.9476C14.8936 20.5917 15.7605 20.9957 16.7204 21.0055C17.6803 21.0128 18.5545 20.6235 19.1887 19.9893C19.8205 19.3551 20.2196 18.6743 20.2294 17.4426C20.2294 17.254 20.3225 17.0336 20.44 16.9063C20.5772 16.7545 20.7633 16.6835 20.9494 16.6835H20.9836C21.1698 16.6859 21.351 16.7643 21.4856 16.9137C21.6007 17.0434 21.6889 17.2614 21.6864 17.4548C21.6766 18.6865 22.0635 19.3722 22.6855 20.0187C23.31 20.6651 24.1768 21.0692 25.1367 21.0765C26.0991 21.0839 26.9708 20.6945 27.605 20.0603C28.2393 19.4236 28.636 18.5396 28.6433 17.5601C28.6507 16.5806 28.2711 15.6917 27.6467 15.0453ZM18.5692 18.3633C18.0329 18.3584 17.5995 17.9078 17.6044 17.3569L18.5765 17.3642L18.5863 16.3676C19.1226 16.3725 19.556 16.8231 19.5511 17.374C19.5487 17.925 19.1079 18.3658 18.5692 18.3633ZM26.579 18.4294C26.0427 18.4245 25.6093 17.974 25.6118 17.423L26.5864 17.4328L26.5962 16.4337C27.1324 16.4386 27.5659 16.8892 27.561 17.4401C27.5585 17.9911 27.1153 18.4343 26.579 18.4294Z" fill="white"></path><path d="M29.9811 3.28387L29.9762 19.1444C29.9762 19.7884 29.8464 20.4079 29.6162 20.9736C29.3762 21.5613 29.0236 22.0902 28.5926 22.531L28.2547 22.8371C27.8972 23.1383 27.4956 23.388 27.0622 23.5717C26.6826 23.7333 26.2051 23.9023 25.8451 23.8998H25.468L24.4004 23.8876C24.4126 23.8778 24.4273 23.868 24.4396 23.8533C24.5449 23.7553 24.8436 23.4664 25.0395 23.1432C25.0395 23.1407 25.042 23.1358 25.0444 23.1334C25.1791 22.9081 25.2574 22.6387 25.2991 22.4379C25.3015 22.4281 25.304 22.4159 25.3064 22.4061C25.3138 22.3645 25.3211 22.3228 25.3285 22.2837C25.3358 22.2322 25.3432 22.1833 25.3481 22.1367C25.5733 22.1367 25.8231 22.122 26.0851 22.078C26.1414 22.0682 26.2002 22.0584 26.259 22.0437C26.2908 22.0388 26.3251 22.0314 26.3569 22.0241C26.4696 21.9972 26.5847 21.9653 26.6998 21.9261C26.7732 21.9016 26.8516 21.8747 26.9275 21.8453C26.9642 21.8306 27.0034 21.8159 27.0426 21.7988C27.1185 21.767 27.192 21.7327 27.2679 21.696C27.2997 21.6788 27.3315 21.6641 27.3634 21.647C27.4001 21.6274 27.4344 21.6078 27.4711 21.5882C27.4883 21.5809 27.5054 21.5711 27.5201 21.5613C27.5642 21.5343 27.6082 21.5099 27.6523 21.4805L27.7919 21.3923C27.9388 21.2919 28.0857 21.1817 28.2302 21.0544C28.2792 21.0128 28.3257 20.9687 28.3722 20.9246C28.4212 20.8805 28.4677 20.834 28.5143 20.7875H28.5167C28.5437 20.7605 28.5706 20.7312 28.6 20.7018C28.6563 20.6405 28.7175 20.572 28.7787 20.4936C28.8718 20.3785 28.9697 20.2439 29.0677 20.0896C29.0971 20.0382 29.1289 19.9867 29.1583 19.9304C29.1828 19.8888 29.2073 19.8447 29.2293 19.8006C29.2391 19.781 29.2489 19.7615 29.2587 19.7419C29.2856 19.6855 29.3126 19.6268 29.3395 19.5656C29.3615 19.5141 29.386 19.4578 29.4081 19.4015C29.413 19.3843 29.4203 19.3672 29.4277 19.3476C29.4521 19.2815 29.4766 19.2129 29.4987 19.1419C29.5232 19.066 29.5452 18.9876 29.5672 18.9068C29.5844 18.8383 29.6015 18.7673 29.6162 18.6962C29.6407 18.5958 29.6603 18.4906 29.675 18.3804C29.6897 18.2971 29.7019 18.2114 29.7093 18.1257C29.7117 18.1134 29.7117 18.1012 29.7117 18.089C29.724 17.9959 29.7313 17.898 29.7362 17.8C29.7582 17.396 29.7362 17.0238 29.6799 16.6809C29.6725 16.6369 29.6652 16.5952 29.6554 16.5536C29.648 16.5022 29.6382 16.4532 29.626 16.4042C29.5648 16.1447 29.4864 15.9022 29.3909 15.6794C29.3664 15.6182 29.3395 15.557 29.3101 15.4957C29.2734 15.4174 29.2342 15.3415 29.1926 15.268C29.1632 15.2141 29.1314 15.1603 29.0995 15.1064C29.0579 15.0354 29.0138 14.9693 28.9697 14.9031C28.9355 14.8542 28.9012 14.8052 28.8669 14.7587C28.8277 14.7048 28.7861 14.6534 28.7469 14.602C28.7469 14.5995 28.7445 14.5995 28.742 14.5971C28.7004 14.5456 28.6588 14.4967 28.6171 14.4501C28.5755 14.4012 28.5339 14.3546 28.4898 14.3106C28.4482 14.2665 28.4041 14.2224 28.3625 14.1808C28.3233 14.1416 28.2841 14.1049 28.2449 14.0681C28.2057 14.0338 28.1666 13.9996 28.1298 13.9653C28.0147 13.8649 27.9021 13.7792 27.7943 13.7008C27.6205 13.5735 27.4613 13.4731 27.3364 13.4045C27.2875 13.3727 27.2434 13.3506 27.2066 13.3335C27.1871 13.3237 27.1699 13.3164 27.1552 13.3066C27.1185 13.2894 27.0916 13.2772 27.0793 13.2698C27.0744 13.2674 27.0695 13.2649 27.0695 13.2649V3.28143C27.072 2.78678 27.285 2.50762 27.6278 2.34601C27.8898 2.22357 28.1959 2.20398 28.5241 2.20398C28.8522 2.20398 29.1583 2.22357 29.4203 2.34601C29.7631 2.50762 29.9786 2.78678 29.9786 3.28387H29.9811Z" fill="#84CEFF"></path><path d="M28.5043 28.7558C28.3696 29.7475 27.6301 30.6584 26.6261 31.2951C25.9306 31.7383 25.1054 32.0469 24.2606 32.1595C23.4256 32.2697 22.5759 32.1889 21.8143 31.8608C20.7883 31.4176 19.9092 30.5042 19.4317 28.9786C19.3558 28.7411 19.106 28.6088 18.8709 28.6848C18.746 28.7239 18.6505 28.8121 18.5991 28.9272C18.3444 29.4879 18.2171 30.1124 18.271 30.798C18.3175 31.4078 18.506 32.0616 18.8734 32.7546C19.6863 34.2875 21.0307 35.1078 21.9196 35.6514C22.1081 35.7665 22.2673 35.8645 22.3849 35.9404H22.3751C21.7212 36.2146 20.803 36.1167 19.821 35.7469C18.8219 35.3698 17.7739 34.716 16.8629 33.8761C15.9569 33.0411 15.188 32.0224 14.7423 30.9156C14.282 29.7744 14.1742 28.5329 14.6248 27.3012C14.7081 27.071 14.5954 26.8139 14.3726 26.7233L14.3701 26.7209C14.1399 26.6254 13.8804 26.738 13.7873 26.9731L13.78 26.9927C13.2633 28.1828 12.3426 28.9908 11.2431 29.4904C10.1681 29.9777 8.91923 30.1736 7.69486 30.1418C6.46559 30.1099 5.26081 29.8455 4.28376 29.4169C3.32141 28.9982 2.59413 28.4227 2.30518 27.7665L2.30028 27.7591C2.43496 27.7861 2.62107 27.8277 2.83166 27.8767C3.84299 28.1093 5.37345 28.457 7.00676 27.9207C7.74628 27.6783 8.32663 27.3379 8.77475 26.9315C9.27919 26.4711 9.61467 25.9299 9.81057 25.3496C9.89383 25.112 9.76894 24.8525 9.53631 24.7717C9.40653 24.7251 9.2694 24.7423 9.1592 24.8108C7.78056 25.57 6.52926 25.6091 5.49099 25.2124C4.71474 24.9161 4.04378 24.375 3.51731 23.7114C2.98348 23.0355 2.59658 22.2348 2.39578 21.4267C2.10438 20.2611 2.19499 19.0857 2.77044 18.2752L2.8488 18.5788C3.07163 19.4334 3.40221 20.7092 4.44048 21.6569C5.15062 22.3033 5.88524 22.58 6.59537 22.5947C7.41815 22.6119 8.1944 22.2764 8.86536 21.7646C9.03187 21.6397 9.21063 21.5712 9.02697 21.2406C8.5764 20.315 8.32173 18.8629 8.33398 17.565C8.37806 12.2317 12.7368 7.94637 18.0677 7.99045C21.7188 8.02228 24.8777 10.0743 26.4938 13.0765C26.1241 12.9712 25.7323 12.9173 25.3282 12.9173L21.1115 12.9124H15.1047C13.8926 12.9124 12.7931 13.4144 11.9997 14.2225H11.9973C11.199 15.0355 10.7093 16.1546 10.7068 17.3887C10.7068 18.6229 11.199 19.742 11.9948 20.5525H11.9973C12.7931 21.3655 13.8902 21.8675 15.1023 21.8675C15.1023 21.8675 17.1764 21.9532 17.8914 21.7524V21.9409C17.8914 23.3857 19.0644 24.5831 20.4822 24.5831L24.814 24.6076C24.814 24.6076 24.8214 24.6027 24.8336 24.5929C24.0035 25.4108 23.0093 26.0573 21.8853 26.476C21.6796 26.5617 21.6649 26.6915 21.7261 27.0294C21.8657 27.8595 22.1963 28.6358 22.7962 29.1941C23.3203 29.6838 24.0378 29.9973 24.9928 30.0291C26.391 30.0756 27.4978 29.3826 28.2422 28.9198L28.5043 28.7558Z" fill="#84CEFF"></path><path d="M30.3284 0.347721C29.6771 0.0440773 29.0477 0.00244874 28.5678 0H28.4992C27.9629 0 27.3287 0.0416286 26.6725 0.347721C25.524 0.883995 24.8383 1.98103 24.8383 3.28621V7.98289C22.8647 6.57977 20.509 5.80841 18.0578 5.78637H17.9574C11.4731 5.78637 6.152 11.0634 6.09813 17.5501C6.09079 18.4929 6.19363 19.4601 6.39198 20.349C6.24016 20.2952 6.07854 20.1899 5.90223 20.0307C5.35127 19.5287 5.14312 18.7353 4.95947 18.0325L4.88111 17.7264C4.66562 16.8963 3.98242 16.2621 3.15719 16.1127C3.02986 16.0858 2.89518 16.0735 2.74091 16.0735C2.03077 16.0735 1.35982 16.4188 0.943533 17.0016C0.0203572 18.2945 -0.239209 20.1066 0.226051 21.9652C0.505208 23.0941 1.03658 24.174 1.75896 25.0849C1.88875 25.249 2.02343 25.4057 2.16545 25.5575C1.48715 25.5893 0.855378 25.9371 0.463579 26.4978C-0.00413016 27.1614 -0.0653487 28.0283 0.289719 28.736C0.806403 29.8526 1.87161 30.7905 3.37023 31.4467C4.61909 31.9928 6.12262 32.316 7.62615 32.3552H7.92489C9.44311 32.3577 10.8952 32.0638 12.1294 31.5079C12.2592 31.4492 12.384 31.388 12.5065 31.3243C12.5555 31.4663 12.6069 31.6083 12.6632 31.7504C13.2068 33.0972 14.1325 34.3975 15.3372 35.5067C16.4367 36.5205 17.7419 37.3408 19.0103 37.8184C19.8576 38.1391 20.6706 38.3057 21.4321 38.313H21.4811C22.0541 38.313 22.5953 38.2175 23.0679 38.0387C23.8123 37.7841 24.3682 37.1474 24.52 36.3809C24.6669 35.6537 24.4441 34.9264 23.9421 34.4122C24.138 34.4024 24.3339 34.3828 24.5225 34.3558C25.6734 34.2016 26.7973 33.7926 27.7793 33.1682C29.3955 32.1446 30.4484 30.6484 30.6639 29.0592C30.7765 28.2144 30.3896 27.372 29.6722 26.9068C29.3195 26.6815 28.9131 26.559 28.4747 26.5541C28.0609 26.5541 27.6568 26.6692 27.3067 26.8896L27.0422 27.0561C26.4594 27.4186 25.8007 27.8299 25.0783 27.8299H25.0293C24.7698 27.8201 24.5665 27.7712 24.4147 27.6879C25.1665 27.23 25.8619 26.6766 26.4888 26.0375C26.9712 25.9493 27.4438 25.8048 27.8944 25.6138C28.5237 25.3469 29.1163 24.9845 29.6501 24.5339L29.6648 24.5217L29.6869 24.4997L29.6991 24.4899L30.0321 24.1838C30.064 24.1568 30.0958 24.125 30.1325 24.0883C30.7741 23.4345 31.2761 22.6704 31.6238 21.8183C31.9715 20.971 32.1503 20.0748 32.1503 19.1541L32.1552 3.29356C32.1552 1.99083 31.4695 0.891342 30.3211 0.352619L30.3284 0.347721ZM31.423 19.1492C31.423 19.9695 31.2663 20.7727 30.9529 21.5342C30.6419 22.2958 30.1937 22.9814 29.6158 23.5691C29.5963 23.5887 29.5767 23.6083 29.5571 23.6255L29.2216 23.9315C29.2069 23.9438 29.1922 23.956 29.18 23.9683C28.7049 24.3674 28.1784 24.6931 27.6103 24.9331C27.1353 25.1363 26.6382 25.2759 26.1288 25.3494C25.3183 26.2138 24.3706 26.9239 23.3348 27.4455C23.4328 27.6904 23.5748 27.9328 23.7756 28.1213C24.0743 28.4005 24.4808 28.5425 25.0171 28.5621H25.0808C26.0015 28.5695 26.7949 28.0748 27.4365 27.6757L27.6985 27.5116C27.9409 27.3598 28.2152 27.2863 28.4894 27.2888C28.7661 27.2912 29.0379 27.3696 29.2779 27.5238C29.7579 27.8348 30.015 28.3956 29.9391 28.9613C29.753 30.3301 28.8249 31.6377 27.3899 32.5462C26.4961 33.1143 25.4726 33.4865 24.4294 33.6261C24.1111 33.6702 23.7927 33.6898 23.4793 33.6873C22.6688 33.68 21.9023 33.5233 21.202 33.2196C21.0967 33.1755 20.9889 33.1241 20.8812 33.0678C21.4517 33.6628 22.1227 34.0718 22.6614 34.3999C22.8671 34.5272 23.0312 34.6276 23.1561 34.7085C23.6654 35.0366 23.9225 35.6414 23.8025 36.234C23.6997 36.7556 23.325 37.1743 22.8328 37.3433C22.4141 37.5025 21.9464 37.5833 21.4419 37.5784C20.771 37.571 20.0413 37.4217 19.2724 37.1303C18.0872 36.6846 16.8677 35.9157 15.8368 34.9656C14.7104 33.9273 13.8484 32.7176 13.3464 31.4737C13.1774 31.0476 13.0501 30.6191 12.9644 30.1905C12.6142 30.4378 12.2322 30.6533 11.8257 30.8394C10.665 31.3635 9.28394 31.6353 7.83429 31.623C7.76572 31.623 7.69716 31.6206 7.6286 31.6206C6.23771 31.5839 4.82968 31.2827 3.66653 30.7733C2.33442 30.1905 1.399 29.38 0.958225 28.4274C0.7158 27.945 0.752531 27.3671 1.06597 26.9215C1.34757 26.5174 1.80549 26.2848 2.28544 26.2897C2.38094 26.2897 2.474 26.3019 2.5695 26.3191C2.72132 26.3509 2.91722 26.395 3.13271 26.4464C3.68857 26.5713 4.37667 26.7305 5.10394 26.7354C5.1872 26.7354 5.26801 26.7354 5.34882 26.7305C5.20924 26.6913 5.07211 26.6447 4.93743 26.5933C3.95793 26.2187 3.0568 25.5404 2.33687 24.6294C1.67815 23.7993 1.19575 22.8174 0.941084 21.7889C0.527247 20.136 0.745185 18.5468 1.54103 17.4252C1.82508 17.0285 2.28055 16.8008 2.7556 16.8057C2.84131 16.8057 2.92701 16.8131 3.01027 16.8302C3.57593 16.933 4.0265 17.3542 4.17097 17.9101L4.24933 18.2137C4.44768 18.9753 4.69255 19.9205 5.40759 20.5719C5.80918 20.9367 6.19853 21.1179 6.60012 21.1253H6.61971C6.86214 21.1277 7.09967 21.0665 7.31761 20.9735C7.00172 19.9695 6.82296 18.7402 6.83275 17.555C6.88418 11.4209 11.9188 6.46957 18.0529 6.521C20.891 6.54548 23.5601 7.64742 25.5705 9.5305V3.28621C25.573 2.26019 26.0848 1.43251 26.9834 1.01378C27.5124 0.766456 28.0462 0.734622 28.4992 0.734622H28.5678C28.9718 0.737071 29.4983 0.771353 30.0199 1.01378C30.9137 1.43251 31.4279 2.26264 31.4279 3.28866L31.423 19.1492Z" fill="white"></path><path d="M51.0212 29.0833C53.5804 29.0367 54.8945 28.1383 54.9168 26.3395C54.9391 24.8632 54.0874 23.9892 52.3353 23.689C51.5525 23.5734 50.6764 23.4578 49.7294 23.3199C48.0239 23.0441 46.7321 22.4216 45.856 21.4299C44.9333 20.4382 44.4953 19.2174 44.4953 17.7654C44.4953 16.0356 45.0712 14.6525 46.2251 13.594C47.3323 12.5577 48.8999 12.0264 50.9279 12.0041C53.3715 12.0507 55.5151 12.7422 57.3361 14.0563L55.6773 16.5223C54.203 15.5306 52.5644 15.046 50.79 15.0013C49.8673 15.0013 49.1068 15.2325 48.4842 15.6929C47.8393 16.1775 47.5169 16.8914 47.4925 17.8364C47.4925 18.4123 47.7237 18.9193 48.1618 19.3817C48.5998 19.842 49.3136 20.1645 50.283 20.349C50.8123 20.4423 51.5748 20.5336 52.4955 20.6715C54.3389 20.9249 55.7219 21.5942 56.598 22.6548C57.474 23.7154 57.9121 24.9362 57.9121 26.3436C57.8188 30.1014 55.589 32.2225 51.0487 32.0429C48.1203 32.0429 45.5559 31.1843 43.459 29.3855L45.418 27.1487C46.9856 28.4161 48.8533 29.061 51.0191 29.0854" fill="white"></path><path d="M60.3398 17.8546H63.1749V19.3532H63.2215C64.1443 18.246 65.3651 17.6944 66.886 17.6944C68.0622 17.6944 69.1228 18.1101 70.0902 18.9172C71.0352 19.7467 71.5422 20.9695 71.5888 22.5817V31.9183H68.7537V23.5511C68.7537 22.5594 68.5003 21.8212 67.971 21.3143C67.464 20.7829 66.7948 20.5295 65.9897 20.5295C65.1846 20.5295 64.5154 20.7829 63.984 21.3143C63.4548 21.8212 63.1769 22.5817 63.1769 23.5511V31.9183H60.3419V17.8546H60.3398Z" fill="white"></path><path d="M82.785 24.8996C82.785 23.9079 82.7384 23.1718 82.6471 22.7094C82.5559 22.2714 82.3713 21.88 82.0935 21.5575C81.8866 21.2351 81.5865 21.0039 81.1708 20.8194C80.7794 20.6348 80.3414 20.5436 79.81 20.5436C79.3254 20.5436 78.8873 20.6348 78.4736 20.8194C78.0822 21.0039 77.7598 21.2574 77.5286 21.5575C77.2751 21.88 77.1129 22.2714 76.9993 22.7094C76.8837 23.1698 76.8371 23.8856 76.8371 24.8773C76.8371 25.8689 76.8837 26.5605 76.9993 27.0208C77.1149 27.4811 77.2751 27.8969 77.5286 28.2437C77.7821 28.5194 78.0822 28.7506 78.4736 28.9575C78.8894 29.1643 79.3274 29.2576 79.81 29.2576C80.2927 29.2576 80.7774 29.1664 81.1708 28.9575C81.5865 28.7506 81.8846 28.5194 82.0935 28.2437C82.3693 27.8969 82.5538 27.4832 82.6471 27.0208C82.7384 26.5605 82.785 25.8446 82.785 24.8996ZM74.0264 24.8773C74.0264 23.4009 74.142 22.2491 74.3954 21.4663C74.8396 20.0954 75.9144 18.9172 77.1839 18.2398C77.8754 17.8931 78.7515 17.7106 79.8344 17.6862C80.9416 17.7085 81.8157 17.8931 82.5092 18.2398C83.7402 18.9192 84.8718 20.0974 85.2753 21.4663C85.5065 22.2491 85.6201 23.403 85.6201 24.8773C85.6201 26.3516 85.5045 27.4811 85.2753 28.266C85.0441 29.0508 84.6528 29.718 84.0768 30.2939C83.8923 30.5007 83.6854 30.7096 83.4076 30.8921C83.1764 31.1233 82.8783 31.3079 82.5092 31.4681C81.8177 31.8595 80.9193 32.0663 79.8121 32.0663C78.7291 32.044 77.8531 31.8351 77.1616 31.4681C76.47 31.1213 75.9164 30.7076 75.5473 30.2696C75.018 29.6936 74.6246 29.0244 74.3711 28.2416C74.1399 27.4811 74.0264 26.3516 74.0264 24.8752" fill="white"></path><path d="M88.1484 17.8546H90.9835V19.3532H91.0301C91.9528 18.246 93.1737 17.6944 94.6946 17.6944C95.8242 17.7167 96.8158 18.0635 97.6453 18.7773L95.593 21.221C94.9947 20.7606 94.3722 20.5071 93.7496 20.5071C93.0358 20.5071 92.4132 20.7383 91.9062 21.221C91.3303 21.6813 91.0301 22.4195 91.0078 23.4578V31.9183H88.1484V17.8546Z" fill="white"></path><path d="M98.6816 12.1745H101.517V24.4618H101.563L106.958 17.8467H110.346L105.506 23.3322L111.014 31.9084H107.465L103.729 25.3379L101.517 27.8505V31.9084H98.6816V12.1745Z" fill="white"></path><path d="M114.934 21.1521C115.463 20.6228 116.157 20.3449 117.009 20.3449C117.86 20.3449 118.552 20.6207 119.083 21.1521C119.637 21.7057 119.913 22.5351 119.959 23.618H114.058C114.105 22.5351 114.405 21.7057 114.934 21.1521ZM126.666 10.4405V25.4168C126.666 29.2212 124.638 29.4058 122.056 29.4058H117.4C116.408 29.4058 115.625 29.1056 115.025 28.5074C114.38 27.9315 114.056 27.0777 114.056 25.9481H122.792V23.6201C122.77 21.7767 122.192 20.3226 121.062 19.2864C119.955 18.2501 118.619 17.7188 117.004 17.6965C116.335 17.6965 115.668 17.8121 114.977 18.0655C114.285 18.319 113.662 18.7104 113.109 19.2641C112.555 19.7954 112.117 20.5315 111.748 21.4765C111.403 22.3992 111.219 23.5511 111.219 24.9342C111.219 26.3172 111.426 27.5401 111.817 28.4384C112.186 29.3835 112.671 30.0973 113.269 30.6286C113.569 30.8821 113.914 31.089 114.261 31.2735C114.583 31.4803 114.93 31.6203 115.297 31.7338C115.988 31.9407 116.727 32.0563 117.465 32.0563H123.528C127.609 32.0563 129.267 29.1989 129.267 26.4997V8.73502L126.664 10.4405H126.666Z" fill="white"></path></svg> 